<svg width="17" height="17" viewBox="0 0 17 17" fill="none" xmlns="http://www.w3.org/2000/svg">
  <path
    d="M14.4006 3.08873C13.2837 2.57279 12.1046 2.20676 10.8934 2C10.7277 2.29895 10.5777 2.60652 10.4441 2.92144C9.15398 2.72528 7.84198 2.72528 6.55182 2.92144C6.41819 2.60656 6.26822 2.29898 6.10255 2C4.89058 2.20851 3.71068 2.5754 2.59264 3.09143C0.37304 6.40484 -0.228658 9.63595 0.0721909 12.8212C1.37204 13.7902 2.82695 14.5271 4.37367 15C4.72194 14.5274 5.03012 14.026 5.29494 13.5011C4.79196 13.3116 4.3065 13.0778 3.84417 12.8023C3.96585 12.7133 4.08485 12.6215 4.19985 12.5325C5.54511 13.1708 7.01339 13.5018 8.49999 13.5018C9.98658 13.5018 11.4549 13.1708 12.8001 12.5325C12.9165 12.6283 13.0355 12.72 13.1558 12.8023C12.6926 13.0782 12.2062 13.3125 11.7024 13.5025C11.9668 14.0271 12.275 14.5281 12.6236 15C14.1717 14.529 15.6277 13.7924 16.9278 12.8225C17.2808 9.12868 16.3247 5.92725 14.4006 3.08873ZM5.67601 10.8623C4.83765 10.8623 4.14502 10.0946 4.14502 9.15027C4.14502 8.20589 4.81358 7.43151 5.67334 7.43151C6.5331 7.43151 7.22037 8.20589 7.20567 9.15027C7.19096 10.0946 6.53043 10.8623 5.67601 10.8623ZM11.324 10.8623C10.4843 10.8623 9.79431 10.0946 9.79431 9.15027C9.79431 8.20589 10.4629 7.43151 11.324 7.43151C12.1851 7.43151 12.867 8.20589 12.8523 9.15027C12.8376 10.0946 12.1784 10.8623 11.324 10.8623Z"
    fill="currentColor" />
</svg>